<svg version="1.1" viewBox="0.0 0.0 541.6351706036745 542.496062992126" fill="none" stroke="none" stroke-linecap="square" stroke-miterlimit="10" xmlns:xlink="http://www.w3.org/1999/xlink" xmlns="http://www.w3.org/2000/svg"><clipPath id="p.0"><path d="m0 0l541.6352 0l0 542.49603l-541.6352 0l0 -542.49603z" clip-rule="nonzero"/></clipPath><g clip-path="url(#p.0)"><path fill="#000000" fill-opacity="0.0" d="m0 0l541.6352 0l0 542.49603l-541.6352 0z" fill-rule="evenodd"/><path fill="#000000" d="m2.0144358 271.24802l0 0c0 -148.45587 120.34727 -268.80313 268.80316 -268.80313l0 0c71.291016 0 139.66214 28.320251 190.07251 78.73061c50.41037 50.410378 78.73062 118.7815 78.73062 190.07251l0 0c0 148.4559 -120.34726 268.8032 -268.80313 268.8032l0 0c-148.4559 0 -268.80316 -120.34729 -268.80316 -268.8032z" fill-rule="evenodd"/><path fill="#cbe5ff" d="m40.423885 271.24933l0 0c0 -127.242905 103.15077 -230.39368 230.3937 -230.39368l0 0c61.104187 0 119.70575 24.273552 162.91293 67.48075c43.207214 43.2072 67.48074 101.80875 67.48074 162.91293l0 0c0 127.24295 -103.15076 230.3937 -230.39368 230.3937l0 0c-127.242935 0 -230.3937 -103.15076 -230.3937 -230.3937z" fill-rule="evenodd"/><path fill="#000000" d="m227.43076 206.09726l0 0c2.800171 -2.6255798 7.3479156 -2.6339264 10.1577 -0.01864624l0 0l0 0c1.349289 1.2558899 2.1091614 2.9612274 2.1124268 4.7408295c0.0032653809 1.779602 -0.7503357 3.4877167 -2.0950165 4.7485504l-64.1281 60.12976c-2.8001556 2.6255798 -7.3479156 2.6339111 -10.157684 0.01864624l0 0l0 0c-2.809784 -2.615265 -2.8175812 -6.8638 -0.017425537 -9.48938z" fill-rule="evenodd"/><path stroke="#000000" stroke-width="16.0" stroke-linejoin="round" stroke-linecap="butt" d="m227.43076 206.09726l0 0c2.800171 -2.6255798 7.3479156 -2.6339264 10.1577 -0.01864624l0 0l0 0c1.349289 1.2558899 2.1091614 2.9612274 2.1124268 4.7408295c0.0032653809 1.779602 -0.7503357 3.4877167 -2.0950165 4.7485504l-64.1281 60.12976c-2.8001556 2.6255798 -7.3479156 2.6339111 -10.157684 0.01864624l0 0l0 0c-2.809784 -2.615265 -2.8175812 -6.8638 -0.017425537 -9.48938z" fill-rule="evenodd"/><path fill="#000000" d="m237.5618 326.92896l0 0c2.8001556 2.6255798 2.7923584 6.874115 -0.017425537 9.48938l0 0l0 0c-1.349289 1.2559204 -3.1775055 1.9595032 -5.082443 1.9559937c-1.9049377 -0.003479004 -3.730545 -0.71377563 -5.075241 -1.9746399l-64.1281 -60.12976c-2.8001556 -2.6255493 -2.7923584 -6.874115 0.017425537 -9.48938l0 0l0 0c2.8097687 -2.615265 7.3575287 -2.6069336 10.157684 0.01864624z" fill-rule="evenodd"/><path stroke="#000000" stroke-width="16.0" stroke-linejoin="round" stroke-linecap="butt" d="m237.5618 326.92896l0 0c2.8001556 2.6255798 2.7923584 6.874115 -0.017425537 9.48938l0 0l0 0c-1.349289 1.2559204 -3.1775055 1.9595032 -5.082443 1.9559937c-1.9049377 -0.003479004 -3.730545 -0.71377563 -5.075241 -1.9746399l-64.1281 -60.12976c-2.8001556 -2.6255493 -2.7923584 -6.874115 0.017425537 -9.48938l0 0l0 0c2.8097687 -2.615265 7.3575287 -2.6069336 10.157684 0.01864624z" fill-rule="evenodd"/><path fill="#000000" d="m376.37418 264.4518l0 0c3.7544556 0 6.8599854 3.0429688 6.936371 6.796631l0 0l0 0c0.03668213 1.8025818 -0.64437866 3.5313416 -1.8933105 4.805969c-1.2489624 1.2746277 -2.963501 1.9906921 -4.766449 1.9906921l-198.77705 0c-3.7544556 0 -6.85997 -3.0429688 -6.9363556 -6.7966614l0 0l0 0c-0.0763855 -3.753662 2.9052887 -6.796631 6.6597595 -6.796631z" fill-rule="evenodd"/><path stroke="#000000" stroke-width="16.0" stroke-linejoin="round" stroke-linecap="butt" d="m376.37418 264.4518l0 0c3.7544556 0 6.8599854 3.0429688 6.936371 6.796631l0 0l0 0c0.03668213 1.8025818 -0.64437866 3.5313416 -1.8933105 4.805969c-1.2489624 1.2746277 -2.963501 1.9906921 -4.766449 1.9906921l-198.77705 0c-3.7544556 0 -6.85997 -3.0429688 -6.9363556 -6.7966614l0 0l0 0c-0.0763855 -3.753662 2.9052887 -6.796631 6.6597595 -6.796631z" fill-rule="evenodd"/></g></svg>